<?xml version="1.0" encoding="UTF-8" standalone="no"?>
<svg xmlns="http://www.w3.org/2000/svg" width="1000" height="1000" viewBox="0 0 1000 1000">
  <!-- Background -->
  <rect x="0" y="0" width="1000" height="1000" fill="white"/>
  
  <!-- Health Circuit -->
  <g transform="translate(500,500)">
    <!-- Tree of Life Pattern -->
    <g stroke="#000000" fill="none">
      <!-- Central Column -->
      <circle cx="0" cy="-200" r="50" stroke-width="1"/>
      <circle cx="0" cy="0" r="50" stroke-width="1"/>
      <circle cx="0" cy="200" r="50" stroke-width="1"/>
      
      <!-- Right Column -->
      <circle cx="150" cy="-100" r="50" stroke-width="1"/>
      <circle cx="150" cy="100" r="50" stroke-width="1"/>
      
      <!-- Left Column -->
      <circle cx="-150" cy="-100" r="50" stroke-width="1"/>
      <circle cx="-150" cy="100" r="50" stroke-width="1"/>
      
      <!-- Connecting Paths -->
      <path d="M 0,-150 L 0,-50" stroke-width="0.7"/>
      <path d="M 0,50 L 0,150" stroke-width="0.7"/>
      <path d="M 35,-173.2 L 115,-127.8" stroke-width="0.7"/>
      <path d="M 35,173.2 L 115,127.8" stroke-width="0.7"/>
      <path d="M -35,-173.2 L -115,-127.8" stroke-width="0.7"/>
      <path d="M -35,173.2 L -115,127.8" stroke-width="0.7"/>
    </g>
    
    <!-- DNA Helix -->
    <g stroke="#000000" stroke-width="0.5" fill="none">
      <path d="M -200,-200 C -150,-150 150,-150 200,-100 
               C 150,-50 -150,-50 -200,0
               C -150,50 150,50 200,100
               C 150,150 -150,150 -200,200"/>
      <path d="M -200,-180 C -150,-130 150,-130 200,-80
               C 150,-30 -150,-30 -200,20
               C -150,70 150,70 200,120
               C 150,170 -150,170 -200,220"/>
    </g>
  </g>
</svg>
