<?xml version="1.0" encoding="UTF-8" standalone="no"?>
<svg xmlns="http://www.w3.org/2000/svg" width="1000" height="1000" viewBox="0 0 1000 1000">
  <!-- Background -->
  <rect x="0" y="0" width="1000" height="1000" fill="white"/>
  
  <!-- Wealth Circuit -->
  <g transform="translate(500,500)">
    <!-- Abundance Spiral -->
    <g stroke="#000000" fill="none">
      <!-- Golden Spiral -->
      <path d="M 0,0 A 50,50 0 0 1 50,50 
               A 100,100 0 0 1 -100,100
               A 200,200 0 0 1 -200,-200" 
            stroke-width="1"/>
      
      <!-- Prosperity Nodes -->
      <circle cx="50" cy="50" r="10" stroke-width="0.7"/>
      <circle cx="-100" cy="100" r="15" stroke-width="0.7"/>
      <circle cx="-200" cy="-200" r="20" stroke-width="0.7"/>
      
      <!-- Flow Lines -->
      <path d="M 0,0 L 200,0 M 0,0 L 0,200 
               M 0,0 L -200,-200" 
            stroke-width="0.5" stroke-dasharray="5,5"/>
    </g>
    
    <!-- Manifestation Accelerator -->
    <g stroke="#000000" stroke-width="0.7" fill="none">
      <path d="M -150,-150 L 150,150 M -150,150 L 150,-150"/>
      <circle cx="0" cy="0" r="212.13"/>
      <circle cx="0" cy="0" r="150"/>
      <circle cx="0" cy="0" r="100"/>
    </g>
    
    <!-- Resource Flow Optimizers -->
    <g stroke="#000000" stroke-width="0.5" fill="none">
      <path d="M 200,0 A 200,200 0 0 1 0,200"/>
      <path d="M -200,0 A 200,200 0 0 0 0,-200"/>
      <circle cx="200" cy="0" r="5"/>
      <circle cx="-200" cy="0" r="5"/>
      <circle cx="0" cy="200" r="5"/>
      <circle cx="0" cy="-200" r="5"/>
    </g>
  </g>
</svg>
