<?xml version="1.0" encoding="UTF-8" standalone="no"?>
<svg xmlns="http://www.w3.org/2000/svg" width="1000" height="1000" viewBox="0 0 1000 1000">
  <!-- Background -->
  <rect x="0" y="0" width="1000" height="1000" fill="white"/>
  
  <!-- Wisdom Circuit -->
  <g transform="translate(500,500)">
    <!-- Eye of Providence -->
    <g stroke="#000000" fill="none">
      <!-- Eye Shape -->
      <path d="M -200,0 C -150,-100 150,-100 200,0 
               C 150,100 -150,100 -200,0" 
            stroke-width="1"/>
      <circle cx="0" cy="0" r="30" stroke-width="0.7"/>
      <circle cx="0" cy="0" r="10"/>
      
      <!-- Wisdom Rays -->
      <g stroke-width="0.5">
        <line x1="-173.2" y1="-100" x2="173.2" y2="100"/>
        <line x1="-173.2" y1="100" x2="173.2" y2="-100"/>
        <line x1="0" y1="-200" x2="0" y2="200"/>
        <line x1="-200" y1="0" x2="200" y2="0"/>
      </g>
    </g>
    
    <!-- Knowledge Gateway -->
    <g stroke="#000000" stroke-width="0.7" fill="none">
      <path d="M -150,-150 H 150 V 150 H -150 Z"/>
      <path d="M -100,-100 H 100 V 100 H -100 Z"/>
      <path d="M -50,-50 H 50 V 50 H -50 Z"/>
    </g>
    
    <!-- Understanding Amplifier -->
    <g stroke="#000000" stroke-width="0.5" fill="none">
      <circle cx="0" cy="0" r="180"/>
      <path d="M -127.28,-127.28 L 127.28,127.28 
               M -127.28,127.28 L 127.28,-127.28"/>
      <circle cx="0" cy="0" r="127.28"/>
    </g>
  </g>
</svg>
