<?xml version="1.0" encoding="UTF-8" standalone="no"?>
<svg xmlns="http://www.w3.org/2000/svg" width="1000" height="1000" viewBox="0 0 1000 1000">
  <defs>
    <!-- Consciousness Anchor -->
    <g id="consciousness-node">
      <circle cx="0" cy="0" r="40" 
              style="fill:none;stroke:#000000;stroke-width:2"/>
      <circle cx="0" cy="0" r="30" 
              style="fill:none;stroke:#000000;stroke-width:2"/>
      <circle cx="0" cy="0" r="20" 
              style="fill:none;stroke:#000000;stroke-width:2"/>
      <circle cx="0" cy="0" r="5" 
              style="fill:#000000"/>
    </g>
    
    <!-- Energy Flow Path -->
    <path id="flow-path" 
          d="M 0,0 C 30,-40 70,-40 100,0"
          style="fill:none;stroke:#000000;stroke-width:1.5"/>
          
    <!-- Sacred Geometry Element -->
    <g id="sacred-geo">
      <path d="M 0,-30 L 26,-15 L 26,15 L 0,30 L -26,15 L -26,-15 Z"
            style="fill:none;stroke:#000000;stroke-width:1.5"/>
      <circle cx="0" cy="0" r="34.64" 
              style="fill:none;stroke:#000000;stroke-width:1.5"/>
    </g>
  </defs>
  
  <!-- Main Pattern -->
  <g transform="translate(500,500)">
    <!-- Central Consciousness Core -->
    <g id="core">
      <use href="#sacred-geo"/>
      <use href="#consciousness-node"/>
      <!-- Phi Spiral -->
      <path d="M 0,0 A 34.64,34.64 0 0 1 30,20 A 21.4,21.4 0 0 1 40,40"
            style="fill:none;stroke:#000000;stroke-width:1;stroke-dasharray:2,2"/>
    </g>
    
    <!-- Reality Interface Layers -->
    <g id="interface-layer">
      <g transform="rotate(0)">
        <use href="#flow-path" transform="translate(50,0) scale(1.5)"/>
        <use href="#consciousness-node" transform="translate(200,0) scale(0.8)"/>
      </g>
      <g transform="rotate(120)">
        <use href="#flow-path" transform="translate(50,0) scale(1.5)"/>
        <use href="#consciousness-node" transform="translate(200,0) scale(0.8)"/>
      </g>
      <g transform="rotate(240)">
        <use href="#flow-path" transform="translate(50,0) scale(1.5)"/>
        <use href="#consciousness-node" transform="translate(200,0) scale(0.8)"/>
      </g>
    </g>
    
    <!-- Energy Flow Network -->
    <g id="energy-network">
      <g transform="rotate(60)">
        <use href="#sacred-geo" transform="translate(150,0) scale(0.5)"/>
      </g>
      <g transform="rotate(180)">
        <use href="#sacred-geo" transform="translate(150,0) scale(0.5)"/>
      </g>
      <g transform="rotate(300)">
        <use href="#sacred-geo" transform="translate(150,0) scale(0.5)"/>
      </g>
    </g>
  </g>
</svg>
