<?xml version="1.0" encoding="UTF-8" standalone="no"?>
<svg xmlns="http://www.w3.org/2000/svg" width="1000" height="1000" viewBox="0 0 1000 1000">
  <defs>
    <!-- Health Resonator (Tree of Life Pattern) -->
    <g id="health-pattern">
      <circle cx="0" cy="0" r="40" style="fill:none;stroke:#000000;stroke-width:1.5"/>
      <path d="M 0,-40 C 20,-30 20,-10 0,0 C -20,-10 -20,-30 0,-40" 
            style="fill:none;stroke:#000000;stroke-width:1"/>
      <path d="M 0,0 C 20,10 20,30 0,40 C -20,30 -20,10 0,0" 
            style="fill:none;stroke:#000000;stroke-width:1"/>
      <circle cx="0" cy="0" r="5" style="fill:#000000"/>
    </g>
    
    <!-- Wealth Amplifier (Abundance Spiral) -->
    <g id="wealth-pattern">
      <path d="M 0,0 A 40,40 0 0 1 28.28,28.28 A 20,20 0 0 1 14.14,14.14" 
            style="fill:none;stroke:#000000;stroke-width:1.5"/>
      <path d="M 0,0 L 40,0 M 0,0 L 0,40" 
            style="stroke:#000000;stroke-width:1;stroke-dasharray:2,2"/>
      <circle cx="40" cy="0" r="3" style="fill:#000000"/>
      <circle cx="0" cy="40" r="3" style="fill:#000000"/>
    </g>
    
    <!-- Wisdom Gateway (Eye of Providence) -->
    <g id="wisdom-pattern">
      <path d="M -30,0 C -20,-20 20,-20 30,0 C 20,20 -20,20 -30,0" 
            style="fill:none;stroke:#000000;stroke-width:1.5"/>
      <circle cx="0" cy="0" r="5" style="fill:#000000"/>
      <path d="M -40,-40 L 40,40 M -40,40 L 40,-40" 
            style="stroke:#000000;stroke-width:0.5;stroke-dasharray:3,3"/>
    </g>
  </defs>
  
  <!-- Main Manifestation Pattern -->
  <g transform="translate(500,500)">
    <!-- Universal Mind Interface (Flower of Life Base) -->
    <g transform="scale(1.618)">
      <!-- Central Consciousness Core -->
      <circle cx="0" cy="0" r="100" 
              style="fill:none;stroke:#000000;stroke-width:2"/>
      <circle cx="0" cy="0" r="61.8" 
              style="fill:none;stroke:#000000;stroke-width:1.5"/>
      <circle cx="0" cy="0" r="38.2" 
              style="fill:none;stroke:#000000;stroke-width:1"/>
      
      <!-- Health Manifestation Circuit -->
      <g transform="rotate(0)">
        <use href="#health-pattern" transform="translate(0,100)"/>
        <path d="M 0,61.8 Q 0,80 0,100" 
              style="fill:none;stroke:#000000;stroke-width:1"/>
      </g>
      
      <!-- Wealth Manifestation Circuit -->
      <g transform="rotate(120)">
        <use href="#wealth-pattern" transform="translate(0,100)"/>
        <path d="M 0,61.8 Q 0,80 0,100" 
              style="fill:none;stroke:#000000;stroke-width:1"/>
      </g>
      
      <!-- Wisdom Manifestation Circuit -->
      <g transform="rotate(240)">
        <use href="#wisdom-pattern" transform="translate(0,100)"/>
        <path d="M 0,61.8 Q 0,80 0,100" 
              style="fill:none;stroke:#000000;stroke-width:1"/>
      </g>
      
      <!-- Integration Network -->
      <path d="M 0,0 C 50,0 50,50 0,50 C -50,50 -50,0 0,0" 
            style="fill:none;stroke:#000000;stroke-width:1;stroke-dasharray:2,2"
            transform="rotate(0)"/>
      <path d="M 0,0 C 50,0 50,50 0,50 C -50,50 -50,0 0,0" 
            style="fill:none;stroke:#000000;stroke-width:1;stroke-dasharray:2,2"
            transform="rotate(120)"/>
      <path d="M 0,0 C 50,0 50,50 0,50 C -50,50 -50,0 0,0" 
            style="fill:none;stroke:#000000;stroke-width:1;stroke-dasharray:2,2"
            transform="rotate(240)"/>
    </g>
  </g>
</svg>
