<?xml version="1.0" encoding="UTF-8" standalone="no"?>
<svg xmlns="http://www.w3.org/2000/svg" width="1000" height="1000" viewBox="0 0 1000 1000">
  <defs>
    <!-- Connection Path -->
    <path id="connector" 
          d="M 0,0 C 50,-20 100,-20 150,0"
          style="fill:none;stroke:#000000;stroke-width:30"/>
          
    <!-- Small Orbital -->
    <g id="small-orbital">
      <circle cx="0" cy="0" r="80" 
              style="fill:none;stroke:#000000;stroke-width:20"/>
      <circle cx="0" cy="0" r="40" 
              style="fill:none;stroke:#000000;stroke-width:15"/>
      <circle cx="0" cy="0" r="10" style="fill:#000000"/>
    </g>
  </defs>
  
  <!-- Main Structure -->
  <g transform="translate(500,500)">
    <!-- Central Orbital -->
    <circle cx="0" cy="0" r="200" 
            style="fill:none;stroke:#000000;stroke-width:40"/>
    
    <!-- Inner Pattern -->
    <g transform="rotate(30)">
      <path d="M -100,-100 L 100,100 M -100,100 L 100,-100"
            style="stroke:#000000;stroke-width:20"/>
    </g>
    
    <!-- Orbital Text Path -->
    <path id="orbital-text" 
          d="M -160,0 
             a 160,160 0 1,0 320,0 
             a 160,160 0 1,0 -320,0"
          style="fill:none;stroke:#000000;stroke-width:25"/>
    
    <!-- Connected Orbitals -->
    <g transform="rotate(45)">
      <use href="#small-orbital" transform="translate(300,0)"/>
      <use href="#connector" transform="translate(200,0)"/>
    </g>
    
    <g transform="rotate(165)">
      <use href="#small-orbital" transform="translate(300,0)"/>
      <use href="#connector" transform="translate(200,0)"/>
    </g>
    
    <g transform="rotate(285)">
      <use href="#small-orbital" transform="translate(300,0)"/>
      <use href="#connector" transform="translate(200,0)"/>
    </g>
  </g>
</svg>
