<?xml version="1.0" encoding="UTF-8" standalone="no"?>
<svg xmlns="http://www.w3.org/2000/svg" width="1000" height="1000" viewBox="0 0 1000 1000">
  <defs>
    <!-- Orbital Ring Component -->
    <path id="orbital-ring" 
          d="M 0,0 
             m -200,0 
             a 200,200 0 1,0 400,0 
             a 200,200 0 1,0 -400,0"
          style="fill:none;stroke:#000000;stroke-width:40"/>
    
    <!-- Node Point -->
    <circle id="node" cx="0" cy="0" r="20" 
            style="fill:#000000"/>
            
    <!-- Radial Marker -->
    <path id="radial-mark" 
          d="M -10,-10 L 10,10 M -10,10 L 10,-10"
          style="stroke:#000000;stroke-width:8"/>
  </defs>
  
  <!-- Main Orbital Structure -->
  <g transform="translate(500,500)">
    <!-- Outer Ring -->
    <use href="#orbital-ring" transform="scale(1.2)"/>
    
    <!-- Inner Ring with Text Path -->
    <path id="text-path" 
          d="M -150,0 
             a 150,150 0 1,0 300,0 
             a 150,150 0 1,0 -300,0"
          style="fill:none;stroke:#000000;stroke-width:30"/>
    
    <!-- Radial Lines -->
    <g id="radial-lines">
      <line x1="0" y1="-180" x2="0" y2="-220" 
            style="stroke:#000000;stroke-width:8"/>
      <line x1="180" y1="0" x2="220" y2="0" 
            style="stroke:#000000;stroke-width:8"/>
      <line x1="0" y1="180" x2="0" y2="220" 
            style="stroke:#000000;stroke-width:8"/>
      <line x1="-180" y1="0" x2="-220" y2="0" 
            style="stroke:#000000;stroke-width:8"/>
    </g>
    
    <!-- Node Points -->
    <use href="#node" transform="rotate(45) translate(200,0)"/>
    <use href="#node" transform="rotate(135) translate(200,0)"/>
    <use href="#node" transform="rotate(225) translate(200,0)"/>
    <use href="#node" transform="rotate(315) translate(200,0)"/>
    
    <!-- Center Element -->
    <circle cx="0" cy="0" r="50" 
            style="fill:none;stroke:#000000;stroke-width:20"/>
    <use href="#radial-mark"/>
  </g>
</svg>
