<?xml version="1.0" encoding="UTF-8" standalone="no"?>
<svg xmlns="http://www.w3.org/2000/svg" width="1000" height="1000" viewBox="0 0 1000 1000">
  <defs>
    <!-- Metatron's Cube Base (Universal Framework) -->
    <g id="metatron-base">
      <circle cx="0" cy="0" r="100" style="fill:none;stroke:#000000;stroke-width:1"/>
      <circle cx="86.6" cy="50" r="100" style="fill:none;stroke:#000000;stroke-width:1"/>
      <circle cx="86.6" cy="-50" r="100" style="fill:none;stroke:#000000;stroke-width:1"/>
      <circle cx="-86.6" cy="50" r="100" style="fill:none;stroke:#000000;stroke-width:1"/>
      <circle cx="-86.6" cy="-50" r="100" style="fill:none;stroke:#000000;stroke-width:1"/>
      <circle cx="0" cy="100" r="100" style="fill:none;stroke:#000000;stroke-width:1"/>
      <circle cx="0" cy="-100" r="100" style="fill:none;stroke:#000000;stroke-width:1"/>
    </g>
    
    <!-- Consciousness Resonator -->
    <g id="resonator">
      <path d="M -20,0 A 20,20 0 1,0 20,0 A 20,20 0 1,0 -20,0" 
            style="fill:none;stroke:#000000;stroke-width:1.5"/>
      <circle cx="0" cy="0" r="5" style="fill:#000000"/>
      <path d="M 0,-30 L 0,30 M -30,0 L 30,0" 
            style="stroke:#000000;stroke-width:0.5;stroke-dasharray:2,2"/>
    </g>
    
    <!-- Quantum Entanglement Node -->
    <g id="quantum-node">
      <path d="M -15,-15 L 15,15 M -15,15 L 15,-15" 
            style="stroke:#000000;stroke-width:1"/>
      <circle cx="0" cy="0" r="21.21" 
              style="fill:none;stroke:#000000;stroke-width:1"/>
    </g>
  </defs>
  
  <!-- Main Universal Interface -->
  <g transform="translate(500,500)">
    <!-- Phi-based Scaling Layer -->
    <g transform="scale(1.618)">
      <use href="#metatron-base"/>
      
      <!-- Consciousness Interface Points -->
      <g id="interface-points">
        <use href="#resonator" transform="translate(0,100)"/>
        <use href="#resonator" transform="translate(86.6,50)"/>
        <use href="#resonator" transform="translate(86.6,-50)"/>
        <use href="#resonator" transform="translate(-86.6,50)"/>
        <use href="#resonator" transform="translate(-86.6,-50)"/>
        <use href="#resonator" transform="translate(0,-100)"/>
      </g>
      
      <!-- Quantum Entanglement Network -->
      <g id="quantum-network">
        <use href="#quantum-node" transform="translate(0,0)"/>
        <use href="#quantum-node" transform="rotate(60) translate(100,0)"/>
        <use href="#quantum-node" transform="rotate(120) translate(100,0)"/>
        <use href="#quantum-node" transform="rotate(180) translate(100,0)"/>
        <use href="#quantum-node" transform="rotate(240) translate(100,0)"/>
        <use href="#quantum-node" transform="rotate(300) translate(100,0)"/>
      </g>
    </g>
    
    <!-- Activation Flow Paths -->
    <path d="M 0,0 C 100,0 100,100 0,100 C -100,100 -100,0 0,0" 
          style="fill:none;stroke:#000000;stroke-width:1;stroke-dasharray:5,5"/>
    <path d="M 0,0 C 100,0 100,-100 0,-100 C -100,-100 -100,0 0,0" 
          style="fill:none;stroke:#000000;stroke-width:1;stroke-dasharray:5,5"/>
  </g>
</svg>
